<svg width="90" height="90" viewBox="0 0 90 90" fill="none" xmlns="http://www.w3.org/2000/svg">
<circle cx="45" cy="45" r="45" fill="#FF8533" fill-opacity="0.4"/>
<path d="M70 65.2381V70H54.0909V65.2381H59.6818L45 28.5952C44.5682 27.4762 43.8636 26.5714 42.8636 25.8571C41.8636 25.1429 40.7727 24.7619 39.5682 24.7619C37.9545 24.7619 36.5455 25.4048 35.3636 26.6429C34.1818 27.881 33.6364 29.3333 33.6364 31.0476V39.0476H35.9091C40.9318 39.0476 45 43.3095 45 48.5714V70H35.9091C37.2955 68 38.1818 65.5476 38.1818 62.8571C38.1818 56.2857 33.0909 50.9524 26.8182 50.9524C25.2045 50.9524 23.6591 51.3095 22.2727 51.9524V39.0476H29.0909V31.0476C29.0909 29.0476 29.6136 27.1429 30.5227 25.5238C31.4545 23.8571 32.7045 22.5238 34.3182 21.5C35.9091 20.5 37.6591 20 39.5682 20C41.7045 20 43.6364 20.619 45.3636 21.8333C47.0909 23.0476 48.4091 24.6905 49.25 26.6905L64.6818 65.2381H70ZM33.6364 62.8571C33.6364 66.8095 30.5909 70 26.8182 70C23.0455 70 20 66.8095 20 62.8571C20 58.9048 23.0455 55.7143 26.8182 55.7143C30.5909 55.7143 33.6364 58.9048 33.6364 62.8571ZM29.0909 62.8571C29.0909 61.5476 28.0682 60.4762 26.8182 60.4762C25.5682 60.4762 24.5455 61.5476 24.5455 62.8571C24.5455 64.1667 25.5682 65.2381 26.8182 65.2381C28.0682 65.2381 29.0909 64.1667 29.0909 62.8571Z" fill="black"/>
</svg>
