<svg width="90" height="90" viewBox="0 0 90 90" fill="none" xmlns="http://www.w3.org/2000/svg">
<circle cx="45" cy="45" r="45" fill="#FF8533" fill-opacity="0.4"/>
<path d="M45 18C50.8013 18 55.5 23.37 55.5 30C55.5 36.63 50.8013 42 45 42C39.1987 42 34.5 36.63 34.5 30C34.5 23.37 39.1987 18 45 18ZM55.5 49.62C55.5 52.8 54.765 60.21 49.7513 68.49L47.625 54L50.0925 48.36C48.465 48.15 46.7588 48 45 48C43.2412 48 41.535 48.15 39.9075 48.36L42.375 54L40.2487 68.49C35.235 60.21 34.5 52.8 34.5 49.62C28.2262 51.72 24 55.5 24 60V72H66V60C66 55.5 61.8 51.72 55.5 49.62Z" fill="black"/>
</svg>
