<svg width="505" height="300" viewBox="0 0 505 300" fill="none" xmlns="http://www.w3.org/2000/svg">
<g clip-path="url(#clip0_173_872)">
<path d="M470.519 52.1356H462.847C462.237 52.1366 461.642 51.9381 461.144 51.5675C460.646 51.1968 460.27 50.6725 460.068 50.0671C459.481 48.2932 458.786 46.5606 457.988 44.88C457.713 44.2985 457.619 43.6405 457.719 42.9994C457.819 42.3584 458.109 41.7669 458.547 41.3091L464 35.5721C464.554 34.9886 464.866 34.1976 464.866 33.3729C464.866 32.5482 464.554 31.7572 464 31.1737L452.219 18.7848C451.665 18.2018 450.913 17.8744 450.129 17.8744C449.346 17.8744 448.594 18.2018 448.039 18.7848L442.488 24.6254C442.056 25.0817 441.499 25.3846 440.895 25.4919C440.291 25.5992 439.67 25.5055 439.12 25.2239C437.553 24.4188 435.939 23.7188 434.287 23.1282C433.705 22.9197 433.2 22.5245 432.843 21.9983C432.486 21.4721 432.294 20.8413 432.295 20.1947V11.9207C432.295 11.5125 432.219 11.1083 432.071 10.7312C431.922 10.354 431.705 10.0113 431.43 9.72271C431.156 9.43407 430.83 9.20512 430.472 9.04894C430.113 8.89277 429.729 8.81242 429.341 8.8125H412.687C412.299 8.81242 411.915 8.89277 411.556 9.04894C411.198 9.20512 410.872 9.43407 410.598 9.72271C410.323 10.0113 410.106 10.354 409.957 10.7312C409.809 11.1083 409.732 11.5125 409.732 11.9207V20.1947C409.734 20.8413 409.542 21.4721 409.185 21.9983C408.827 22.5245 408.322 22.9197 407.741 23.1282C406.089 23.7187 404.476 24.4187 402.909 25.2239C402.358 25.5055 401.737 25.5992 401.133 25.4919C400.53 25.3846 399.973 25.0817 399.54 24.6254L393.989 18.7848C393.434 18.202 392.683 17.8745 391.899 17.8745C391.115 17.8745 390.363 18.202 389.808 18.7848L378.027 31.1737C377.473 31.7572 377.162 32.5482 377.162 33.3729C377.162 34.1976 377.473 34.9886 378.027 35.5721L383.48 41.3091C383.918 41.767 384.208 42.3585 384.308 42.9995C384.409 43.6406 384.314 44.2986 384.039 44.88C383.241 46.5596 382.548 48.2924 381.964 50.0671C381.761 50.6724 381.384 51.1964 380.885 51.5669C380.386 51.9374 379.791 52.136 379.181 52.1356H371.508C371.12 52.1354 370.736 52.2157 370.377 52.3719C370.019 52.528 369.693 52.757 369.419 53.0456C369.144 53.3343 368.927 53.677 368.778 54.0541C368.63 54.4313 368.554 54.8356 368.554 55.2438V72.7713C368.554 73.1795 368.63 73.5837 368.778 73.9609C368.927 74.3381 369.144 74.6808 369.419 74.9694C369.693 75.2581 370.019 75.487 370.377 75.6432C370.736 75.7993 371.12 75.8796 371.508 75.8795H378.979C379.601 75.879 380.206 76.0851 380.71 76.4683C381.213 76.8515 381.589 77.3922 381.783 78.0133C382.359 79.8352 383.049 81.6153 383.847 83.3421C384.118 83.9238 384.21 84.5798 384.109 85.2189C384.009 85.858 383.722 86.4484 383.288 86.9077L378.026 92.4435C377.752 92.7319 377.534 93.0744 377.385 93.4515C377.236 93.8285 377.16 94.2327 377.16 94.641C377.16 95.0492 377.236 95.4534 377.385 95.8304C377.534 96.2075 377.752 96.55 378.026 96.8384L389.807 109.231C390.362 109.814 391.114 110.141 391.898 110.141C392.682 110.141 393.433 109.814 393.988 109.231L399.146 103.804C399.585 103.343 400.152 103.039 400.765 102.935C401.377 102.831 402.006 102.933 402.561 103.225C404.229 104.103 405.953 104.859 407.719 105.49C408.305 105.698 408.814 106.094 409.175 106.623C409.536 107.151 409.73 107.785 409.731 108.435V116.088C409.731 116.497 409.807 116.901 409.955 117.279C410.103 117.657 410.321 118 410.595 118.289C410.869 118.579 411.195 118.808 411.554 118.965C411.913 119.121 412.297 119.202 412.686 119.202H429.34C429.728 119.202 430.113 119.121 430.472 118.965C430.83 118.808 431.156 118.579 431.431 118.289C431.705 118 431.923 117.657 432.071 117.279C432.219 116.901 432.295 116.497 432.294 116.088V108.436C432.296 107.786 432.49 107.152 432.851 106.624C433.212 106.096 433.721 105.7 434.306 105.491C436.073 104.86 437.796 104.104 439.465 103.227C440.02 102.934 440.648 102.832 441.261 102.936C441.874 103.04 442.44 103.344 442.88 103.805L448.038 109.232C448.593 109.815 449.344 110.142 450.128 110.142C450.912 110.142 451.664 109.815 452.218 109.232L463.999 96.8372C464.274 96.5489 464.492 96.2063 464.641 95.8293C464.789 95.4522 464.866 95.048 464.866 94.6398C464.866 94.2316 464.789 93.8274 464.641 93.4503C464.492 93.0733 464.274 92.7307 463.999 92.4424L458.738 86.9066C458.304 86.4472 458.016 85.8569 457.916 85.2178C457.816 84.5787 457.908 83.9226 458.179 83.3409C458.977 81.6142 459.667 79.8341 460.243 78.0121C460.437 77.3911 460.812 76.8503 461.316 76.4671C461.819 76.0839 462.425 75.8778 463.046 75.8783H470.517C470.905 75.8785 471.289 75.7982 471.648 75.642C472.006 75.4859 472.332 75.2569 472.606 74.9683C472.881 74.6796 473.098 74.3369 473.247 73.9597C473.395 73.5826 473.472 73.1783 473.471 72.7701V55.2438C473.472 54.8358 473.395 54.4317 473.247 54.0547C473.099 53.6777 472.881 53.3351 472.607 53.0464C472.333 52.7578 472.008 52.5288 471.649 52.3725C471.291 52.2162 470.907 52.1357 470.519 52.1356ZM421.016 89.9072C416.147 89.9077 411.386 88.3889 407.337 85.5429C403.288 82.6969 400.132 78.6516 398.269 73.9185C396.405 69.1855 395.917 63.9773 396.867 58.9525C397.817 53.9278 400.162 49.3123 403.605 45.6897C407.048 42.0671 411.435 39.6001 416.211 38.6008C420.987 37.6014 425.938 38.1146 430.436 40.0753C434.935 42.0361 438.78 45.3563 441.485 49.6163C444.19 53.8762 445.634 58.8844 445.634 64.0075C445.633 70.8763 443.039 77.4636 438.422 82.3205C433.806 87.1775 427.545 89.9065 421.016 89.9072Z" fill="#B34700"/>
<path d="M144.231 241.222H138.595C138.147 241.223 137.71 241.077 137.345 240.805C136.979 240.533 136.703 240.147 136.555 239.703C136.123 238.4 135.613 237.127 135.027 235.892C134.824 235.465 134.755 234.982 134.829 234.511C134.903 234.04 135.115 233.606 135.437 233.269L139.445 229.054C139.852 228.626 140.08 228.045 140.08 227.439C140.08 226.833 139.852 226.252 139.445 225.823L130.792 216.724C130.384 216.296 129.832 216.055 129.256 216.055C128.68 216.055 128.128 216.296 127.721 216.724L123.643 221.014C123.326 221.349 122.917 221.571 122.474 221.65C122.03 221.729 121.575 221.66 121.17 221.453C120.019 220.862 118.834 220.348 117.621 219.914C117.194 219.761 116.823 219.471 116.56 219.084C116.298 218.698 116.157 218.234 116.158 217.759V211.683C116.158 211.383 116.102 211.086 115.993 210.809C115.884 210.532 115.724 210.28 115.522 210.068C115.321 209.856 115.082 209.688 114.818 209.574C114.555 209.459 114.273 209.4 113.988 209.4H101.751C101.466 209.4 101.184 209.459 100.921 209.574C100.657 209.688 100.418 209.856 100.217 210.068C100.015 210.28 99.8552 210.532 99.7462 210.809C99.6372 211.086 99.5811 211.383 99.5812 211.683V217.761C99.582 218.236 99.4413 218.699 99.1789 219.085C98.9164 219.472 98.5454 219.762 98.118 219.915C96.9053 220.349 95.7199 220.863 94.5689 221.455C94.1645 221.661 93.7088 221.73 93.2654 221.652C92.8219 221.573 92.413 221.35 92.0956 221.015L88.0177 216.725C87.6104 216.297 87.0582 216.056 86.4823 216.056C85.9065 216.056 85.3542 216.297 84.9469 216.725L76.2938 225.825C75.8868 226.253 75.6582 226.834 75.6582 227.44C75.6582 228.046 75.8868 228.627 76.2938 229.055L80.2991 233.269C80.6208 233.606 80.8336 234.04 80.9073 234.511C80.981 234.982 80.9119 235.465 80.7097 235.892C80.1235 237.126 79.6144 238.399 79.1855 239.703C79.036 240.147 78.7592 240.532 78.3931 240.804C78.027 241.076 77.5897 241.223 77.1414 241.222H71.5048C71.2198 241.222 70.9376 241.281 70.6743 241.396C70.411 241.511 70.1717 241.679 69.9702 241.891C69.7687 242.103 69.6089 242.355 69.4998 242.632C69.3908 242.909 69.3347 243.205 69.3348 243.505V256.379C69.3347 256.679 69.3908 256.976 69.4998 257.253C69.6089 257.53 69.7687 257.782 69.9702 257.994C70.1717 258.206 70.411 258.374 70.6743 258.489C70.9376 258.604 71.2198 258.663 71.5048 258.662H76.9924C77.4489 258.662 77.8939 258.813 78.2638 259.095C78.6337 259.376 78.9095 259.773 79.052 260.23C79.4756 261.568 79.9822 262.875 80.5684 264.144C80.7675 264.571 80.8349 265.053 80.7613 265.523C80.6877 265.992 80.4768 266.426 80.1578 266.763L76.2933 270.829C76.0918 271.041 75.9319 271.293 75.8228 271.569C75.7137 271.846 75.6575 272.143 75.6575 272.442C75.6575 272.742 75.7137 273.039 75.8228 273.316C75.9319 273.592 76.0918 273.844 76.2933 274.056L84.9463 283.16C85.3537 283.588 85.9059 283.829 86.4818 283.829C87.0576 283.829 87.6099 283.588 88.0172 283.16L91.8059 279.173C92.1288 278.835 92.5448 278.612 92.9949 278.536C93.4451 278.46 93.9065 278.535 94.3139 278.75C95.5397 279.394 96.8057 279.95 98.1032 280.413C98.5333 280.566 98.9071 280.857 99.1722 281.245C99.4373 281.633 99.5803 282.098 99.5812 282.576V288.198C99.5807 288.498 99.6365 288.795 99.7454 289.073C99.8542 289.35 100.014 289.602 100.216 289.814C100.417 290.027 100.656 290.195 100.92 290.31C101.183 290.425 101.466 290.484 101.751 290.484H113.985C114.27 290.484 114.552 290.425 114.816 290.31C115.079 290.195 115.319 290.027 115.52 289.814C115.722 289.602 115.881 289.35 115.99 289.073C116.099 288.795 116.155 288.498 116.155 288.198V282.576C116.155 282.098 116.298 281.633 116.564 281.245C116.829 280.857 117.202 280.566 117.633 280.413C118.93 279.95 120.196 279.394 121.422 278.75C121.829 278.535 122.291 278.46 122.741 278.536C123.191 278.612 123.607 278.835 123.93 279.173L127.719 283.16C128.126 283.588 128.678 283.829 129.254 283.829C129.83 283.829 130.382 283.588 130.789 283.16L139.445 274.056C139.646 273.844 139.806 273.592 139.915 273.316C140.024 273.039 140.08 272.742 140.08 272.442C140.08 272.143 140.024 271.846 139.915 271.569C139.806 271.293 139.646 271.041 139.445 270.829L135.58 266.763C135.261 266.426 135.05 265.992 134.977 265.522C134.903 265.053 134.97 264.571 135.169 264.144C135.756 262.875 136.262 261.568 136.686 260.23C136.828 259.773 137.104 259.376 137.474 259.095C137.844 258.813 138.289 258.662 138.745 258.662H144.233C144.518 258.663 144.8 258.604 145.064 258.489C145.327 258.374 145.566 258.206 145.768 257.994C145.969 257.782 146.129 257.53 146.238 257.253C146.347 256.976 146.403 256.679 146.403 256.379V243.505C146.403 243.205 146.347 242.908 146.238 242.631C146.129 242.354 145.969 242.102 145.767 241.89C145.565 241.678 145.326 241.51 145.062 241.395C144.799 241.281 144.516 241.222 144.231 241.222ZM107.87 268.966C104.293 268.966 100.797 267.85 97.8232 265.76C94.8495 263.669 92.5317 260.698 91.163 257.222C89.7943 253.745 89.4362 249.92 90.134 246.229C90.8317 242.539 92.554 239.149 95.083 236.488C97.612 233.827 100.834 232.015 104.342 231.281C107.85 230.547 111.486 230.924 114.79 232.364C118.094 233.804 120.918 236.242 122.905 239.371C124.892 242.5 125.953 246.178 125.953 249.941C125.953 252.439 125.485 254.913 124.577 257.222C123.668 259.53 122.336 261.627 120.657 263.394C118.977 265.16 116.984 266.562 114.79 267.518C112.596 268.474 110.245 268.966 107.87 268.966Z" fill="#B34700"/>
<path d="M101.966 136.019H94.293C93.6832 136.02 93.0882 135.821 92.5904 135.451C92.0925 135.08 91.7166 134.556 91.5146 133.95C90.9271 132.176 90.2324 130.444 89.4347 128.763C89.1592 128.181 89.0649 127.523 89.1653 126.882C89.2656 126.241 89.5555 125.65 89.9937 125.192L95.4467 119.455C96.0007 118.871 96.3119 118.08 96.3119 117.256C96.3119 116.431 96.0007 115.64 95.4467 115.057L83.6662 102.668C83.1116 102.085 82.3598 101.757 81.5759 101.757C80.792 101.757 80.0402 102.085 79.4856 102.668L73.9342 108.508C73.5021 108.965 72.9451 109.268 72.3412 109.375C71.7374 109.482 71.1167 109.389 70.566 109.107C68.9988 108.302 67.3848 107.602 65.7335 107.011C65.1517 106.802 64.6466 106.407 64.2894 105.881C63.9321 105.355 63.7405 104.724 63.7416 104.077V95.8035C63.7418 95.3953 63.6655 94.9911 63.517 94.6139C63.3686 94.2367 63.151 93.894 62.8766 93.6054C62.6023 93.3167 62.2765 93.0878 61.918 92.9316C61.5595 92.7755 61.1753 92.6952 60.7873 92.6953H44.1331C43.7451 92.6952 43.361 92.7756 43.0025 92.9318C42.6441 93.088 42.3184 93.3169 42.0441 93.6056C41.7698 93.8942 41.5522 94.2369 41.4038 94.614C41.2555 94.9912 41.1792 95.3954 41.1793 95.8035V104.077C41.1803 104.724 40.9888 105.355 40.6315 105.881C40.2742 106.407 39.7692 106.802 39.1874 107.011C37.5361 107.601 35.922 108.301 34.3549 109.107C33.8042 109.389 33.1836 109.482 32.5797 109.375C31.9758 109.268 31.4189 108.965 30.9867 108.508L25.4353 102.668C24.8807 102.085 24.1289 101.757 23.345 101.757C22.5611 101.757 21.8093 102.085 21.2547 102.668L9.47311 115.057C8.9191 115.64 8.60791 116.431 8.60791 117.256C8.60791 118.08 8.9191 118.871 9.47311 119.455L14.9267 125.192C15.3648 125.65 15.6545 126.241 15.7548 126.882C15.855 127.523 15.7607 128.181 15.4851 128.763C14.6869 130.443 13.994 132.176 13.4108 133.95C13.2069 134.556 12.8297 135.08 12.3312 135.45C11.8326 135.821 11.2372 136.019 10.6268 136.019H2.95434C2.56635 136.019 2.18213 136.099 1.82363 136.255C1.46513 136.411 1.13939 136.64 0.865016 136.929C0.590645 137.217 0.373027 137.56 0.224602 137.937C0.0761775 138.314 -0.000144046 138.718 4.60723e-07 139.127V156.654C-0.000216296 157.062 0.0760519 157.467 0.224444 157.844C0.372837 158.221 0.590443 158.564 0.864822 158.852C1.1392 159.141 1.46497 159.37 1.8235 159.526C2.18204 159.682 2.56631 159.763 2.95434 159.762H10.4251C11.0464 159.762 11.652 159.968 12.1553 160.351C12.6587 160.734 13.0342 161.275 13.2283 161.896C13.8048 163.718 14.4945 165.498 15.2927 167.225C15.5636 167.807 15.6553 168.463 15.5551 169.102C15.4549 169.741 15.1678 170.331 14.7337 170.791L9.47201 176.326C9.19746 176.615 8.97966 176.957 8.83105 177.334C8.68244 177.711 8.60595 178.116 8.60595 178.524C8.60595 178.932 8.68244 179.336 8.83105 179.713C8.97966 180.09 9.19746 180.433 9.47201 180.721L21.2531 193.115C21.8076 193.698 22.5595 194.026 23.3434 194.026C24.1273 194.026 24.8791 193.698 25.4337 193.115L30.5915 187.688C31.031 187.227 31.5973 186.923 32.2102 186.819C32.8232 186.715 33.4516 186.817 34.0065 187.11C35.6751 187.987 37.3985 188.743 39.1649 189.374C39.7506 189.582 40.2597 189.978 40.6206 190.507C40.9816 191.035 41.1764 191.669 41.1777 192.319V199.973C41.177 200.381 41.2529 200.786 41.4011 201.163C41.5492 201.541 41.7667 201.884 42.041 202.174C42.3154 202.463 42.6412 202.692 42.9999 202.849C43.3586 203.005 43.7431 203.086 44.1314 203.086H60.7856C61.174 203.086 61.5586 203.005 61.9174 202.849C62.2761 202.692 62.602 202.463 62.8764 202.174C63.1508 201.885 63.3683 201.541 63.5165 201.164C63.6647 200.786 63.7406 200.381 63.74 199.973V192.319C63.7413 191.669 63.936 191.035 64.297 190.507C64.658 189.978 65.167 189.582 65.7528 189.374C67.5189 188.743 69.2422 187.987 70.9106 187.11C71.4655 186.817 72.0939 186.715 72.7068 186.819C73.3198 186.923 73.8861 187.227 74.3256 187.688L79.484 193.115C80.0386 193.698 80.7904 194.026 81.5743 194.026C82.3582 194.026 83.11 193.698 83.6646 193.115L95.4451 180.721C95.7196 180.433 95.9374 180.09 96.086 179.713C96.2346 179.336 96.3111 178.932 96.3111 178.524C96.3111 178.116 96.2346 177.711 96.086 177.334C95.9374 176.957 95.7196 176.615 95.4451 176.326L90.1833 170.791C89.7493 170.331 89.4622 169.741 89.362 169.102C89.2618 168.463 89.3535 167.807 89.6244 167.225C90.4229 165.499 91.1125 163.718 91.6888 161.896C91.8829 161.275 92.2584 160.734 92.7618 160.351C93.2651 159.968 93.8707 159.762 94.492 159.762H101.963C102.351 159.762 102.735 159.682 103.094 159.526C103.452 159.37 103.778 159.141 104.052 158.852C104.327 158.564 104.544 158.221 104.693 157.844C104.841 157.466 104.917 157.062 104.917 156.654V139.127C104.917 138.303 104.607 137.513 104.053 136.93C103.5 136.347 102.749 136.019 101.966 136.019ZM52.4624 173.79C47.5929 173.79 42.8326 172.272 38.7836 169.426C34.7346 166.58 31.5787 162.534 29.715 157.801C27.8514 153.068 27.3636 147.86 28.3135 142.835C29.2634 137.811 31.6082 133.195 35.0515 129.573C38.4947 125.95 42.8817 123.483 47.6577 122.484C52.4336 121.484 57.384 121.997 61.8827 123.958C66.3815 125.919 70.2265 129.239 72.9316 133.499C75.6367 137.759 77.0803 142.767 77.0798 147.89C77.0791 154.759 74.4853 161.346 69.8687 166.203C65.2522 171.06 58.9911 173.789 52.4624 173.79Z" fill="#B34700"/>
<path d="M77.6729 250.098L366.666 250.098C373.763 250.098 379.516 244.045 379.516 236.578V13.9697C379.516 6.5031 373.763 0.450241 366.666 0.450241L77.6729 0.450241C70.576 0.450241 64.8228 6.5031 64.8228 13.9697V236.578C64.8228 244.045 70.576 250.098 77.6729 250.098Z" fill="white"/>
<path d="M64.3941 236.578V13.9699C64.3983 10.2661 65.7987 6.71532 68.2881 4.09639C70.7774 1.47747 74.1525 0.00428503 77.6729 0L366.667 0C370.188 0.00428503 373.563 1.47747 376.052 4.09639C378.542 6.71532 379.942 10.2661 379.946 13.9699V236.578C379.942 240.282 378.542 243.833 376.052 246.452C373.563 249.071 370.188 250.544 366.667 250.548H77.6729C74.1525 250.544 70.7773 249.071 68.2879 246.452C65.7985 243.833 64.3981 240.282 64.3941 236.578ZM77.6729 0.901528C74.3796 0.905507 71.2222 2.28369 68.8935 4.73374C66.5647 7.18378 65.2547 10.5056 65.251 13.9705V236.578C65.2547 240.043 66.5647 243.365 68.8935 245.815C71.2222 248.265 74.3796 249.643 77.6729 249.647H366.667C369.961 249.643 373.118 248.265 375.447 245.815C377.776 243.365 379.086 240.043 379.089 236.578V13.9699C379.086 10.505 377.776 7.18307 375.447 4.73299C373.118 2.28291 369.961 0.904776 366.667 0.90095L77.6729 0.901528Z" fill="#292A2E"/>
<path d="M64.8228 13.9682V27.5721H379.515V13.9682C379.515 10.383 378.162 6.94462 375.752 4.4093C373.343 1.87398 370.075 0.449344 366.667 0.44873H77.6729C74.2648 0.44873 70.9964 1.8731 68.5865 4.40848C66.1766 6.94387 64.8228 10.3826 64.8228 13.9682Z" fill="#292A2E"/>
<path d="M120.215 151.471C113.333 151.471 106.607 149.324 100.885 145.302C95.1635 141.28 90.7041 135.563 88.0707 128.874C85.4374 122.186 84.7484 114.826 86.0908 107.725C87.4333 100.625 90.747 94.1022 95.6128 88.983C100.479 83.8637 106.678 80.3775 113.427 78.9651C120.176 77.5527 127.172 78.2776 133.529 81.0481C139.887 83.8186 145.321 88.5103 149.144 94.5299C152.967 100.55 155.007 107.627 155.007 114.866C154.997 124.571 151.328 133.875 144.805 140.737C138.282 147.6 129.439 151.46 120.215 151.471ZM120.215 79.4183C113.551 79.4183 107.037 81.4973 101.496 85.3924C95.955 89.2875 91.6365 94.8237 89.0863 101.301C86.5362 107.778 85.8689 114.906 87.169 121.782C88.4691 128.658 91.678 134.975 96.3901 139.932C101.102 144.89 107.106 148.266 113.642 149.633C120.177 151.001 126.952 150.299 133.109 147.616C139.265 144.933 144.527 140.39 148.23 134.56C151.932 128.731 153.908 121.877 153.908 114.866C153.898 105.468 150.345 96.4573 144.029 89.8113C137.712 83.1653 129.148 79.4268 120.215 79.416V79.4183Z" fill="#292A2E"/>
<path d="M222.169 151.471C215.288 151.471 208.561 149.324 202.84 145.302C197.118 141.28 192.659 135.563 190.025 128.874C187.392 122.186 186.703 114.826 188.045 107.725C189.388 100.625 192.702 94.1022 197.567 88.983C202.433 83.8637 208.633 80.3775 215.382 78.9651C222.131 77.5527 229.126 78.2776 235.484 81.0481C241.841 83.8186 247.275 88.5103 251.098 94.5299C254.921 100.55 256.962 107.627 256.962 114.866C256.951 124.571 253.282 133.875 246.76 140.737C240.237 147.6 231.394 151.46 222.169 151.471ZM222.169 79.4183C215.505 79.4183 208.991 81.4973 203.45 85.3924C197.91 89.2875 193.591 94.8237 191.041 101.301C188.491 107.778 187.823 114.906 189.124 121.782C190.424 128.658 193.633 134.975 198.345 139.932C203.057 144.89 209.06 148.266 215.596 149.633C222.132 151.001 228.906 150.299 235.063 147.616C241.22 144.933 246.482 140.39 250.184 134.56C253.886 128.731 255.862 121.877 255.862 114.866C255.853 105.468 252.3 96.4573 245.983 89.8113C239.667 83.1653 231.102 79.4268 222.169 79.416V79.4183Z" fill="#292A2E"/>
<path d="M324.125 151.471C317.244 151.471 310.517 149.324 304.795 145.302C299.074 141.28 294.614 135.563 291.981 128.874C289.348 122.186 288.658 114.826 290.001 107.725C291.343 100.625 294.657 94.1022 299.523 88.983C304.389 83.8637 310.588 80.3775 317.337 78.9651C324.086 77.5527 331.082 78.2776 337.439 81.0481C343.797 83.8186 349.231 88.5103 353.054 94.5299C356.877 100.55 358.917 107.627 358.917 114.866C358.907 124.571 355.238 133.875 348.715 140.737C342.193 147.6 333.349 151.46 324.125 151.471ZM324.125 79.4183C317.461 79.4183 310.947 81.4973 305.406 85.3924C299.865 89.2875 295.547 94.8237 292.996 101.301C290.446 107.778 289.779 114.906 291.079 121.782C292.379 128.658 295.588 134.975 300.3 139.932C305.012 144.89 311.016 148.266 317.552 149.633C324.088 151.001 330.862 150.299 337.019 147.616C343.175 144.933 348.437 140.39 352.14 134.56C355.842 128.731 357.818 121.877 357.818 114.866C357.808 105.468 354.255 96.4573 347.939 89.8113C341.622 83.1653 333.058 79.4268 324.125 79.416V79.4183Z" fill="#292A2E"/>
<path opacity="0.6" d="M345.783 120.14V97.3481H320.788V115.231H339.269L345.783 120.14Z" fill="#FFA366"/>
<path d="M302.466 136.703V105.878H336.271V130.064H311.276L302.466 136.703Z" fill="#FFA366"/>
<path d="M310.128 121.29C311.746 121.29 313.058 119.91 313.058 118.208C313.058 116.505 311.746 115.125 310.128 115.125C308.51 115.125 307.199 116.505 307.199 118.208C307.199 119.91 308.51 121.29 310.128 121.29Z" fill="white"/>
<path d="M319.368 121.29C320.986 121.29 322.298 119.91 322.298 118.208C322.298 116.505 320.986 115.125 319.368 115.125C317.75 115.125 316.439 116.505 316.439 118.208C316.439 119.91 317.75 121.29 319.368 121.29Z" fill="white"/>
<path d="M328.608 121.29C330.226 121.29 331.538 119.91 331.538 118.208C331.538 116.505 330.226 115.125 328.608 115.125C326.99 115.125 325.679 116.505 325.679 118.208C325.679 119.91 326.99 121.29 328.608 121.29Z" fill="white"/>
<path d="M137.549 126.066C137.886 126.303 138.123 126.666 138.212 127.082C138.301 127.497 138.234 127.933 138.026 128.298L136.131 131.62C135.628 132.518 134.816 133.179 133.863 133.465C130.713 134.374 123.767 134.556 112.632 122.843C101.497 111.131 101.673 103.818 102.537 100.506C102.808 99.5031 103.435 98.6484 104.289 98.1188L107.448 96.1255C107.795 95.9065 108.209 95.8366 108.603 95.9302C108.998 96.0237 109.343 96.2736 109.568 96.628L114.603 104.575C114.823 104.923 114.91 105.346 114.847 105.758C114.783 106.171 114.573 106.543 114.26 106.8L111.431 109.113C111.135 109.354 110.93 109.699 110.854 110.085C110.778 110.471 110.836 110.873 111.018 111.218C111.848 112.788 112.635 114.639 116.529 118.742C120.424 122.845 122.191 123.667 123.681 124.541C124.009 124.732 124.391 124.793 124.758 124.713C125.125 124.633 125.453 124.417 125.681 124.104L127.88 121.13C128.124 120.8 128.477 120.579 128.87 120.512C129.262 120.445 129.664 120.537 129.995 120.769L137.549 126.066Z" fill="#FFA366"/>
<path opacity="0.6" d="M240.099 127.732H204.381C203.979 127.734 203.593 127.569 203.307 127.271C203.022 126.974 202.86 126.57 202.858 126.147L202.733 103.624C202.732 103.438 202.766 103.253 202.833 103.08C202.9 102.907 202.999 102.75 203.123 102.617C203.248 102.484 203.396 102.379 203.56 102.307C203.723 102.234 203.899 102.197 204.076 102.196L240.125 102.001C240.482 101.999 240.826 102.147 241.081 102.412C241.335 102.676 241.479 103.037 241.481 103.413L241.606 126.131C241.607 126.34 241.569 126.547 241.494 126.741C241.419 126.935 241.308 127.111 241.168 127.26C241.028 127.409 240.862 127.527 240.678 127.608C240.495 127.689 240.298 127.731 240.099 127.732Z" fill="#FFA366"/>
<path d="M241.097 102.426C238.964 104.075 223.476 116.068 223.459 116.079C223.039 116.328 222.563 116.453 222.08 116.443C221.598 116.433 221.127 116.287 220.717 116.022L203.1 102.646C203.225 102.505 203.377 102.392 203.545 102.314C203.713 102.237 203.895 102.196 204.079 102.195L240.124 101.999C240.305 101.998 240.484 102.035 240.652 102.109C240.819 102.182 240.97 102.29 241.097 102.426Z" fill="#FFA366"/>
<path d="M388.938 130.208C395.856 130.208 401.465 124.307 401.465 117.029C401.465 109.75 395.856 103.85 388.938 103.85C382.02 103.85 376.412 109.75 376.412 117.029C376.412 124.307 382.02 130.208 388.938 130.208Z" fill="#FF8533"/>
<path d="M383.068 115.78C382.746 115.78 382.431 115.681 382.162 115.495C381.892 115.309 381.681 115.044 381.553 114.732C381.327 114.181 376.084 101.015 381.779 81.7009C387.948 60.7796 409.437 60.5361 409.653 60.5361C410.09 60.5361 410.509 60.7189 410.819 61.0443C411.128 61.3696 411.302 61.8108 411.302 62.271C411.302 62.7311 411.128 63.1723 410.819 63.4977C410.509 63.823 410.09 64.0058 409.653 64.0058C408.868 64.0058 390.367 64.2781 384.926 82.7279C379.588 100.828 384.528 113.234 384.579 113.357C384.687 113.621 384.731 113.909 384.707 114.195C384.684 114.481 384.593 114.757 384.443 114.997C384.293 115.237 384.088 115.434 383.848 115.571C383.607 115.707 383.339 115.779 383.065 115.779L383.068 115.78Z" fill="#FF8533"/>
<path d="M384.403 130.208C391.321 130.208 396.93 124.307 396.93 117.029C396.93 109.75 391.321 103.85 384.403 103.85C377.485 103.85 371.877 109.75 371.877 117.029C371.877 124.307 377.485 130.208 384.403 130.208Z" fill="#FF8533"/>
<path opacity="0.3" d="M384.403 130.208C391.321 130.208 396.93 124.307 396.93 117.029C396.93 109.75 391.321 103.85 384.403 103.85C377.485 103.85 371.877 109.75 371.877 117.029C371.877 124.307 377.485 130.208 384.403 130.208Z" fill="white"/>
<path d="M387.409 130.208C394.327 130.208 399.935 124.307 399.935 117.029C399.935 109.75 394.327 103.85 387.409 103.85C380.491 103.85 374.882 109.75 374.882 117.029C374.882 124.307 380.491 130.208 387.409 130.208Z" fill="#FF8533"/>
<path d="M446.496 93.3164C446.496 93.3164 450.52 113.605 455.327 119.743C469.164 137.414 475.237 158.64 465.308 171.588C455.379 184.536 386.208 194.993 377.365 169.706C369.922 148.417 377.907 144.647 378.004 126.2C378.048 117.853 379.146 100.249 379.146 100.249" fill="#0A0A0A"/>
<path d="M388.685 158.971C388.811 158.954 390.215 183.45 417.263 181.314C435.988 179.838 442.665 158.935 443.096 158.935C441.078 158.484 437.678 157.827 436.782 157.324C433.833 155.657 430.186 153.922 429.234 147.898C428.684 144.428 429.616 126.663 429.329 123.148L400.586 129.898C400.988 137.317 403.799 154.518 393.947 157.562C392.305 158.069 390.539 158.532 388.685 158.971Z" fill="#E98862"/>
<path opacity="0.5" d="M400.181 150.536C400.631 149.009 400.921 147.435 401.045 145.842C401.361 142.207 401.298 138.546 400.857 134.926C406.699 134.096 412.202 131.559 416.742 127.604C417.276 129.677 420.211 138.739 419.399 140.71C417.863 144.435 410.645 150.536 400.181 150.536Z" fill="#0C0C0C"/>
<path d="M405.298 145.155C416.676 144.705 430.6 137.917 431.593 121.755L432.49 107.172C433.483 91.0105 426.22 77.3598 411.756 76.3756C397.292 75.3925 385.676 87.7577 384.682 103.92L384.286 110.376C383.905 116.579 384.999 145.956 405.298 145.155Z" fill="#E98862"/>
<path opacity="0.1" d="M409.792 123.526C411.67 123.496 413.175 122.297 413.154 120.848C413.133 119.398 411.594 118.248 409.716 118.278C407.838 118.309 406.333 119.508 406.354 120.957C406.375 122.406 407.914 123.556 409.792 123.526Z" fill="#0C0C0C"/>
<path opacity="0.1" d="M389.532 120.592C389.55 122.037 388.045 123.237 386.167 123.27C385.842 123.275 385.518 123.244 385.199 123.179C384.896 121.494 384.681 119.861 384.535 118.341C385.031 118.134 385.559 118.025 386.093 118.022C387.972 117.989 389.511 119.139 389.532 120.592Z" fill="#0C0C0C"/>
<path d="M389.021 109.706C390.003 109.706 390.8 108.868 390.8 107.834C390.8 106.8 390.003 105.962 389.021 105.962C388.038 105.962 387.242 106.8 387.242 107.834C387.242 108.868 388.038 109.706 389.021 109.706Z" fill="#0C0C0C"/>
<path d="M406.626 111.089C407.609 111.089 408.406 110.251 408.406 109.218C408.406 108.184 407.609 107.346 406.626 107.346C405.644 107.346 404.847 108.184 404.847 109.218C404.847 110.251 405.644 111.089 406.626 111.089Z" fill="#0C0C0C"/>
<path opacity="0.5" d="M398.265 123.835H398.237C397.65 123.79 397.067 123.712 396.488 123.6C395.624 123.427 394.481 123.102 394.531 122.294C394.586 121.373 397.595 111.6 397.939 110.489C397.971 110.395 398.037 110.319 398.122 110.275C398.208 110.232 398.305 110.224 398.395 110.255C398.486 110.286 398.561 110.352 398.605 110.44C398.65 110.528 398.66 110.631 398.635 110.726C397.351 114.89 395.299 121.724 395.261 122.344C395.388 122.612 396.83 122.967 398.285 123.067C398.378 123.074 398.466 123.119 398.529 123.193C398.592 123.266 398.626 123.362 398.623 123.461C398.621 123.56 398.582 123.654 398.516 123.724C398.449 123.794 398.359 123.834 398.265 123.836L398.265 123.835Z" fill="#0C0C0C"/>
<path opacity="0.5" d="M401.155 130.383C398.813 130.367 396.507 129.773 394.423 128.648C394.38 128.626 394.342 128.595 394.31 128.557C394.278 128.519 394.254 128.475 394.238 128.427C394.207 128.331 394.213 128.225 394.256 128.133C394.298 128.042 394.374 127.972 394.465 127.939C394.557 127.906 394.658 127.912 394.745 127.957C399.239 130.27 403.429 130.196 406.857 127.743C406.927 127.691 406.998 127.643 407.072 127.599C407.158 127.558 407.256 127.553 407.345 127.586C407.434 127.619 407.508 127.687 407.551 127.776C407.593 127.865 407.602 127.967 407.574 128.063C407.546 128.158 407.485 128.238 407.402 128.286C407.375 128.302 407.33 128.335 407.268 128.38C405.465 129.672 403.337 130.37 401.155 130.383Z" fill="#0C0C0C"/>
<path d="M444.201 110.66L431.244 109.857C421.17 107.014 416.223 89.9131 416.223 89.9131C416.223 89.9131 408.164 103.375 379.122 100.235C379.122 100.235 377.707 57.461 420.879 64.7033C434.763 67.0326 446.116 79.8627 447.143 99.0845C447.863 112.555 444.201 110.66 444.201 110.66Z" fill="#0A0A0A"/>
<path d="M430.392 126.618C434.79 126.917 438.655 122.212 438.939 117.587C439.224 112.963 435.817 110.171 431.422 109.872L428.966 112.816L426.613 126.361L430.392 126.618Z" fill="#E98862"/>
<path d="M393.966 103.6C392.793 102.956 391.478 102.649 390.156 102.712C389.492 102.739 388.835 102.871 388.208 103.105C387.575 103.336 386.972 103.651 386.414 104.041L386.396 104.052C386.334 104.092 386.259 104.105 386.188 104.088C386.117 104.071 386.055 104.025 386.015 103.961C385.976 103.896 385.961 103.818 385.976 103.743C385.991 103.667 386.032 103.601 386.093 103.558C386.681 103.116 387.319 102.755 387.994 102.481C388.672 102.202 389.386 102.032 390.112 101.977C391.583 101.855 393.057 102.151 394.382 102.833C394.482 102.885 394.557 102.977 394.593 103.088C394.628 103.199 394.62 103.321 394.57 103.425C394.52 103.53 394.433 103.61 394.327 103.647C394.222 103.684 394.106 103.676 394.007 103.623L393.996 103.617L393.966 103.6Z" fill="#0C0C0C"/>
<path d="M405.712 103.641C407.108 103.138 408.606 103.038 410.05 103.351C410.764 103.502 411.453 103.764 412.093 104.129C412.73 104.488 413.321 104.931 413.852 105.446C413.906 105.497 413.938 105.568 413.943 105.644C413.949 105.72 413.925 105.795 413.879 105.853C413.832 105.912 413.766 105.949 413.694 105.957C413.622 105.965 413.55 105.944 413.493 105.897L413.476 105.883C412.968 105.423 412.408 105.032 411.807 104.719C411.213 104.406 410.576 104.188 409.92 104.075C408.616 103.839 407.276 103.971 406.036 104.457L406.005 104.47C405.954 104.491 405.899 104.501 405.844 104.5C405.789 104.499 405.734 104.486 405.684 104.463C405.633 104.44 405.588 104.406 405.549 104.364C405.511 104.322 405.481 104.273 405.461 104.219C405.441 104.165 405.431 104.107 405.433 104.049C405.434 103.991 405.446 103.934 405.468 103.881C405.49 103.828 405.522 103.779 405.562 103.739C405.601 103.699 405.648 103.668 405.7 103.646L405.712 103.641Z" fill="#0C0C0C"/>
<path opacity="0.52" d="M401.085 134.032C400.662 134.036 400.239 134.002 399.821 133.931C399.773 133.923 399.728 133.905 399.687 133.879C399.646 133.853 399.61 133.818 399.582 133.777C399.554 133.736 399.534 133.69 399.523 133.641C399.511 133.591 399.51 133.541 399.517 133.491C399.525 133.441 399.541 133.393 399.567 133.35C399.592 133.307 399.625 133.269 399.663 133.24C399.702 133.21 399.746 133.189 399.793 133.177C399.84 133.165 399.888 133.163 399.936 133.171C402.451 133.592 403.718 132.438 403.772 132.389C403.844 132.321 403.938 132.285 404.035 132.291C404.132 132.296 404.223 132.341 404.288 132.417C404.353 132.492 404.387 132.592 404.382 132.694C404.377 132.796 404.334 132.892 404.262 132.96C403.352 133.693 402.23 134.072 401.085 134.032Z" fill="#0C0C0C"/>
<path d="M431.385 109.655C422.473 107.537 418.867 101.77 417.412 97.3042C416.458 94.324 416.107 91.167 416.38 88.0356L416.655 88.0744C416.387 91.1648 416.735 94.2802 417.677 97.2209C419.112 101.612 422.665 107.283 431.449 109.373L431.385 109.655Z" fill="#0C0C0C"/>
<path d="M294.341 168.401L285.521 150.903C285.327 150.519 285.059 150.181 284.735 149.912C284.41 149.642 284.035 149.447 283.635 149.338C283.234 149.229 282.817 149.21 282.409 149.28C282.001 149.35 281.611 149.509 281.264 149.747C280.637 150.206 280.194 150.893 280.022 151.676C279.849 152.459 279.959 153.282 280.33 153.985L282.221 157.737L271.126 148.81C269.909 147.794 267.799 147.368 266.806 148.879C266.388 149.435 266.161 150.123 266.163 150.831C266.164 151.539 266.394 152.226 266.814 152.78C266.802 152.789 266.791 152.8 266.781 152.812C266.774 152.822 266.772 152.834 266.766 152.845L264.89 151.276C264.542 150.986 264.137 150.782 263.705 150.677C263.272 150.573 262.823 150.572 262.39 150.673C261.957 150.775 261.551 150.976 261.202 151.264C260.852 151.551 260.568 151.917 260.37 152.335C260.071 152.999 259.998 153.751 260.162 154.466C260.327 155.18 260.72 155.813 261.275 156.26L262.075 156.926C262.067 156.959 262.065 156.994 262.069 157.028C261.43 156.709 260.704 156.64 260.022 156.833C259.339 157.026 258.744 157.468 258.342 158.08C257.922 158.764 257.762 159.589 257.895 160.391C258.027 161.193 258.442 161.913 259.057 162.407L261.041 164.062C260.997 164.059 260.953 164.067 260.913 164.086C260.873 164.105 260.838 164.133 260.81 164.169C260.78 164.214 260.762 164.266 260.76 164.321C260.116 164.204 259.453 164.312 258.874 164.63C258.295 164.947 257.83 165.456 257.553 166.079C257.274 166.739 257.215 167.478 257.385 168.178C257.555 168.877 257.945 169.496 258.491 169.933L275.229 183.894C277.571 185.846 280.414 187.019 283.393 187.261C286.372 187.503 289.352 186.804 291.951 185.253C294.192 183.915 295.849 181.711 296.57 179.109C297.291 176.506 297.019 173.711 295.812 171.316L294.341 168.401Z" fill="#E98862"/>
<g opacity="0.2">
<path opacity="0.2" d="M277.755 161.672C277.71 161.731 277.645 161.768 277.574 161.777C277.503 161.786 277.431 161.766 277.374 161.72L266.833 153.216C266.804 153.193 266.78 153.164 266.762 153.131C266.744 153.098 266.732 153.062 266.728 153.024C266.723 152.987 266.725 152.948 266.735 152.912C266.744 152.875 266.76 152.841 266.782 152.811C266.804 152.78 266.831 152.755 266.863 152.736C266.894 152.717 266.928 152.705 266.964 152.7C267 152.695 267.036 152.697 267.071 152.707C267.106 152.717 267.139 152.734 267.168 152.757L277.709 161.261C277.766 161.308 277.804 161.377 277.813 161.453C277.823 161.528 277.803 161.605 277.759 161.666L277.755 161.672Z" fill="#0C0C0C"/>
</g>
<g opacity="0.2">
<path opacity="0.2" d="M274.318 166.666C274.273 166.725 274.208 166.763 274.137 166.772C274.066 166.781 273.994 166.76 273.937 166.714L262.175 157.224C262.117 157.178 262.079 157.109 262.07 157.033C262.06 156.957 262.079 156.88 262.123 156.819C262.169 156.761 262.234 156.723 262.306 156.713C262.377 156.703 262.449 156.722 262.508 156.766L274.272 166.253C274.33 166.3 274.368 166.369 274.377 166.445C274.387 166.521 274.367 166.597 274.323 166.658L274.318 166.666Z" fill="#0C0C0C"/>
</g>
<g opacity="0.2">
<path opacity="0.2" d="M270.626 172.099C270.581 172.158 270.516 172.195 270.445 172.204C270.374 172.213 270.302 172.193 270.245 172.147L260.861 164.577C260.803 164.53 260.765 164.461 260.756 164.385C260.746 164.309 260.766 164.232 260.81 164.171C260.854 164.11 260.92 164.07 260.992 164.06C261.065 164.05 261.138 164.071 261.196 164.117L270.579 171.689C270.637 171.736 270.675 171.805 270.684 171.881C270.694 171.956 270.674 172.033 270.63 172.094L270.626 172.099Z" fill="#0C0C0C"/>
</g>
<path d="M357.165 169.371L328.645 221.966L299.496 165.97L264.663 186.431L311.557 273.126C313.076 275.912 315.194 278.284 317.741 280.053C322.014 282.999 327.224 284.039 332.225 282.943C337.226 281.848 341.609 278.708 344.41 274.213L344.65 273.826L394.668 193.524L357.165 169.371Z" fill="#FF8533"/>
<path d="M294.341 168.401L285.521 150.903C285.327 150.519 285.059 150.181 284.735 149.912C284.41 149.642 284.035 149.447 283.635 149.338C283.234 149.23 282.817 149.21 282.409 149.28C282.001 149.35 281.611 149.509 281.264 149.747C280.637 150.206 280.194 150.894 280.022 151.677C279.849 152.46 279.959 153.282 280.33 153.985L282.221 157.737L285.162 164.512" fill="#E98862"/>
<path d="M417.768 175.191C436.506 174.262 437.295 157.529 437.295 157.529C437.295 157.529 446.58 158.16 452.751 159.039C462.857 160.477 469.522 164.082 474.827 169.663C479.762 174.855 482.766 180.472 479.587 216.336C477.285 242.3 478.905 299.421 478.905 299.421H365.816C365.816 299.421 359.034 224.555 358.089 212.866C356.285 190.551 348.897 177.973 359.224 166.478C366.712 158.142 386.046 157.529 393.828 157.53C393.955 157.53 392.249 176.457 417.768 175.191Z" fill="#FF8533"/>
<path d="M358.748 209.134C358.743 209.058 358.71 208.986 358.655 208.935C358.6 208.884 358.528 208.859 358.455 208.863C358.383 208.868 358.314 208.903 358.266 208.961C358.218 209.019 358.193 209.094 358.198 209.171L360.498 247.816C360.502 247.885 360.53 247.951 360.576 248C360.622 248.05 360.684 248.08 360.75 248.086C360.763 248.087 360.776 248.087 360.789 248.086C360.825 248.083 360.86 248.073 360.893 248.057C360.925 248.04 360.954 248.017 360.978 247.988C361.002 247.96 361.02 247.927 361.032 247.891C361.044 247.855 361.048 247.817 361.046 247.779" fill="#0C0C0C"/>
<path d="M383.663 265.547L365.37 260.87C364.968 260.768 364.55 260.754 364.143 260.831C363.736 260.907 363.348 261.072 363.005 261.315C362.662 261.558 362.37 261.873 362.149 262.241C361.928 262.609 361.782 263.021 361.721 263.451C361.631 264.249 361.826 265.054 362.268 265.71C362.71 266.365 363.367 266.825 364.113 266.999L368.036 268.002L354.325 270.805C352.795 271.088 351.09 272.466 351.507 274.25C351.624 274.948 351.962 275.583 352.467 276.052C352.971 276.521 353.612 276.797 354.284 276.834C354.283 276.849 354.283 276.865 354.284 276.88C354.284 276.893 354.294 276.902 354.298 276.914L351.939 277.352C351.502 277.433 351.088 277.616 350.727 277.887C350.366 278.158 350.067 278.51 349.851 278.918C349.636 279.327 349.51 279.78 349.482 280.246C349.455 280.712 349.526 281.178 349.692 281.611C349.965 282.288 350.451 282.845 351.068 283.189C351.686 283.534 352.397 283.645 353.082 283.504L354.086 283.318C354.105 283.346 354.128 283.37 354.154 283.39C353.504 283.681 352.973 284.206 352.657 284.872C352.341 285.537 352.261 286.298 352.429 287.02C352.636 287.805 353.116 288.479 353.774 288.908C354.432 289.337 355.219 289.489 355.979 289.333L358.472 288.871C358.441 288.903 358.418 288.943 358.405 288.987C358.392 289.031 358.388 289.078 358.396 289.123C358.407 289.177 358.433 289.226 358.47 289.264C357.959 289.693 357.596 290.286 357.438 290.953C357.279 291.619 357.332 292.323 357.59 292.954C357.874 293.612 358.361 294.149 358.971 294.48C359.581 294.81 360.28 294.914 360.953 294.775L381.989 290.871C384.932 290.325 387.653 288.867 389.803 286.684C391.953 284.5 393.434 281.691 394.056 278.616C394.593 275.965 394.126 273.198 392.755 270.903C391.383 268.608 389.215 266.966 386.712 266.326L383.663 265.547Z" fill="#E98862"/>
<g opacity="0.2">
<path opacity="0.2" d="M367.869 274.129C367.881 274.204 367.865 274.281 367.824 274.343C367.783 274.405 367.72 274.448 367.65 274.462L354.607 277.11C354.572 277.118 354.535 277.117 354.5 277.11C354.464 277.102 354.431 277.087 354.401 277.066C354.371 277.045 354.345 277.017 354.326 276.986C354.306 276.954 354.292 276.918 354.285 276.881C354.278 276.844 354.279 276.805 354.286 276.768C354.293 276.731 354.307 276.696 354.328 276.664C354.348 276.633 354.374 276.606 354.404 276.585C354.434 276.564 354.468 276.55 354.503 276.542L367.546 273.893C367.581 273.886 367.618 273.886 367.653 273.894C367.689 273.902 367.722 273.917 367.752 273.939C367.782 273.96 367.808 273.988 367.828 274.019C367.848 274.051 367.861 274.087 367.868 274.125L367.869 274.129Z" fill="#0C0C0C"/>
</g>
<g opacity="0.2">
<path opacity="0.2" d="M369.141 280.15C369.153 280.224 369.136 280.301 369.095 280.363C369.054 280.425 368.992 280.467 368.921 280.481L354.365 283.438C354.33 283.445 354.293 283.444 354.258 283.437C354.222 283.429 354.189 283.414 354.159 283.392C354.129 283.371 354.103 283.343 354.084 283.311C354.064 283.279 354.05 283.244 354.044 283.206C354.032 283.131 354.049 283.054 354.09 282.991C354.131 282.928 354.193 282.884 354.264 282.868L368.819 279.912C368.855 279.905 368.891 279.905 368.927 279.913C368.962 279.921 368.996 279.936 369.026 279.957C369.056 279.979 369.081 280.006 369.101 280.038C369.121 280.07 369.134 280.106 369.141 280.143V280.15Z" fill="#0C0C0C"/>
</g>
<g opacity="0.2">
<path opacity="0.2" d="M370.548 286.661C370.56 286.735 370.544 286.812 370.503 286.874C370.462 286.936 370.399 286.978 370.329 286.992L358.718 289.351C358.682 289.358 358.646 289.358 358.611 289.35C358.575 289.342 358.542 289.328 358.512 289.306C358.482 289.285 358.456 289.258 358.436 289.226C358.416 289.194 358.403 289.159 358.396 289.122C358.389 289.084 358.389 289.046 358.396 289.009C358.404 288.972 358.418 288.936 358.438 288.905C358.458 288.873 358.484 288.846 358.514 288.825C358.544 288.805 358.578 288.79 358.613 288.783L370.224 286.425C370.26 286.417 370.296 286.418 370.332 286.425C370.367 286.433 370.401 286.448 370.431 286.47C370.461 286.491 370.486 286.519 370.506 286.551C370.526 286.583 370.54 286.618 370.546 286.656L370.548 286.661Z" fill="#0C0C0C"/>
</g>
<path d="M381.841 298.441L480.139 299.006C483.304 299.368 486.507 298.954 489.495 297.795C492.484 296.637 495.176 294.766 497.361 292.329C499.547 289.891 501.166 286.955 502.091 283.749C503.016 280.543 503.223 277.155 502.695 273.851L480.796 181.558C480.361 178.737 479.4 176.033 477.969 173.604C476.538 171.174 474.664 169.067 472.456 167.402C470.247 165.737 467.748 164.548 465.101 163.903C462.454 163.258 459.712 163.169 457.033 163.643C454.354 164.117 451.79 165.144 449.489 166.664C447.188 168.184 445.196 170.167 443.626 172.5C442.056 174.833 440.941 177.47 440.343 180.258C439.745 183.047 439.678 185.932 440.144 188.748L456.939 258.277L382.317 260.859L381.841 298.441Z" fill="#FF8533"/>
<path d="M469.787 257.986C469.856 257.985 469.922 257.957 469.973 257.908C470.023 257.858 470.054 257.79 470.059 257.718C470.064 257.646 470.043 257.574 470 257.517C469.957 257.46 469.895 257.422 469.827 257.411L457.097 257.897C457.061 257.891 457.025 257.893 456.989 257.902C456.954 257.91 456.921 257.927 456.892 257.949C456.863 257.972 456.838 258.001 456.82 258.033C456.802 258.066 456.79 258.103 456.785 258.14C456.774 258.216 456.792 258.293 456.836 258.355C456.879 258.416 456.944 258.457 457.016 258.469L469.746 257.982C469.759 257.985 469.773 257.986 469.787 257.986Z" fill="#0C0C0C"/>
<path d="M477.279 299.421C477.352 299.426 477.424 299.401 477.479 299.35C477.534 299.299 477.567 299.228 477.572 299.151C477.577 299.074 477.552 298.999 477.504 298.941C477.456 298.883 477.388 298.848 477.315 298.843L382.416 298.22L382.833 261.211L457.008 258.468C457.051 258.474 457.095 258.469 457.135 258.454C457.176 258.439 457.213 258.415 457.242 258.382C457.272 258.35 457.295 258.31 457.307 258.267C457.32 258.224 457.323 258.178 457.316 258.133L449.227 216.341C449.221 216.304 449.208 216.268 449.189 216.235C449.17 216.203 449.145 216.175 449.116 216.152C449.086 216.13 449.053 216.115 449.018 216.106C448.982 216.098 448.946 216.097 448.91 216.104C448.838 216.117 448.774 216.159 448.732 216.222C448.69 216.284 448.673 216.362 448.685 216.437L456.709 257.842L382.624 260.597C382.588 260.592 382.551 260.594 382.515 260.604C382.48 260.615 382.447 260.632 382.418 260.656C382.389 260.68 382.365 260.71 382.347 260.743C382.33 260.777 382.318 260.814 382.315 260.853L381.839 298.441C381.831 298.516 381.852 298.591 381.896 298.65C381.941 298.71 382.005 298.749 382.077 298.759L477.241 299.418C477.254 299.42 477.267 299.421 477.279 299.421Z" fill="#0C0C0C"/>
<path d="M335.54 288.562L308.65 201.596C308.177 200.068 307.257 198.736 306.021 197.792C304.785 196.847 303.297 196.339 301.77 196.339H192.216C191.074 196.339 189.948 196.623 188.931 197.169C187.913 197.714 187.033 198.505 186.362 199.477C185.691 200.45 185.248 201.575 185.069 202.762C184.891 203.949 184.982 205.163 185.335 206.305L212.226 293.272C212.699 294.8 213.619 296.132 214.855 297.076C216.09 298.02 217.579 298.529 219.106 298.529H328.66C329.802 298.529 330.928 298.244 331.945 297.699C332.963 297.153 333.843 296.362 334.514 295.39C335.185 294.418 335.628 293.292 335.807 292.105C335.985 290.919 335.894 289.704 335.54 288.562Z" fill="#292A2E"/>
<path d="M386.94 291.478H313.605C311.778 291.478 310.296 293.036 310.296 294.959V295.048C310.296 296.97 311.778 298.529 313.605 298.529H386.94C388.767 298.529 390.249 296.97 390.249 295.048V294.959C390.249 293.036 388.767 291.478 386.94 291.478Z" fill="#292A2E"/>
<path d="M258.789 262.03C265.135 262.03 270.28 256.618 270.28 249.941C270.28 243.265 265.135 237.853 258.789 237.853C252.443 237.853 247.299 243.265 247.299 249.941C247.299 256.618 252.443 262.03 258.789 262.03Z" fill="white"/>
<path d="M437.865 115.051C437.428 115.051 437.009 114.868 436.699 114.543C436.39 114.218 436.216 113.776 436.216 113.316V93.5545C436.216 83.4983 433.571 75.5303 428.565 70.512C423.821 65.7551 417.014 63.5675 408.339 64.0053C408.122 64.0175 407.904 63.9844 407.7 63.908C407.495 63.8316 407.306 63.7134 407.145 63.5602C406.984 63.4069 406.853 63.2217 406.76 63.0151C406.667 62.8084 406.614 62.5845 406.604 62.3562C406.593 62.1279 406.626 61.8996 406.699 61.6846C406.773 61.4695 406.887 61.2719 407.033 61.1031C407.18 60.9343 407.356 60.7976 407.553 60.701C407.75 60.6043 407.963 60.5495 408.18 60.5397C417.794 60.051 425.42 62.5636 430.843 67.9994C436.517 73.689 439.517 82.5256 439.517 93.5539V113.316C439.517 113.544 439.474 113.77 439.391 113.98C439.308 114.191 439.186 114.382 439.033 114.544C438.88 114.705 438.698 114.833 438.497 114.92C438.297 115.007 438.082 115.051 437.865 115.051Z" fill="#FF8533"/>
<path d="M435.401 130.208C442.319 130.208 447.927 124.307 447.927 117.029C447.927 109.75 442.319 103.85 435.401 103.85C428.483 103.85 422.874 109.75 422.874 117.029C422.874 124.307 428.483 130.208 435.401 130.208Z" fill="#FF8533"/>
<path d="M435.884 126.901C435.797 126.834 435.697 126.786 435.592 126.76C435.487 126.734 435.377 126.729 435.27 126.747C435.164 126.765 435.061 126.805 434.969 126.865C434.877 126.925 434.796 127.003 434.733 127.095L433.775 128.488C432.6 130.191 431.059 131.578 429.278 132.535C427.497 133.492 425.526 133.992 423.526 133.995H408.275V133.656C408.275 133.196 408.102 132.755 407.792 132.429C407.483 132.104 407.064 131.921 406.626 131.921H401.465C401.028 131.921 400.609 132.104 400.299 132.429C399.99 132.755 399.816 133.196 399.816 133.656V136.196C399.816 136.656 399.99 137.097 400.299 137.422C400.609 137.748 401.028 137.931 401.465 137.931H406.626C407.064 137.931 407.483 137.748 407.792 137.422C408.102 137.097 408.275 136.656 408.275 136.196V135.733H423.526C425.786 135.73 428.014 135.164 430.028 134.082C432.041 133.001 433.783 131.433 435.111 129.509L436.069 128.115C436.133 128.023 436.179 127.918 436.204 127.807C436.23 127.696 436.234 127.581 436.217 127.468C436.2 127.355 436.161 127.247 436.104 127.15C436.047 127.052 435.973 126.968 435.884 126.901Z" fill="#FF8533"/>
<path d="M438.406 130.208C445.324 130.208 450.933 124.307 450.933 117.029C450.933 109.75 445.324 103.85 438.406 103.85C431.488 103.85 425.88 109.75 425.88 117.029C425.88 124.307 431.488 130.208 438.406 130.208Z" fill="#FF8533"/>
<path opacity="0.3" d="M438.406 130.208C445.324 130.208 450.933 124.307 450.933 117.029C450.933 109.75 445.324 103.85 438.406 103.85C431.488 103.85 425.88 109.75 425.88 117.029C425.88 124.307 431.488 130.208 438.406 130.208Z" fill="white"/>
<path d="M200.498 300H504.451C504.597 300 504.737 299.939 504.84 299.83C504.943 299.722 505.001 299.575 505.001 299.422C505.001 299.268 504.943 299.121 504.84 299.013C504.737 298.904 504.597 298.843 504.451 298.843H200.498C200.352 298.843 200.212 298.904 200.109 299.013C200.006 299.121 199.948 299.268 199.948 299.422C199.948 299.575 200.006 299.722 200.109 299.83C200.212 299.939 200.352 300 200.498 300Z" fill="#292A2E"/>
</g>
<defs>
<clipPath id="clip0_173_872">
<rect width="505" height="300" fill="white"/>
</clipPath>
</defs>
</svg>
