<svg width="50" height="54" viewBox="0 0 50 54" fill="none" xmlns="http://www.w3.org/2000/svg">
<path d="M50 2.68421L20 6.46895V10.7368H50V13.4211H20V26.8421H50C50 31.7005 48.575 36.1295 45.8 40.1289C43.025 44.1284 39.425 47.0542 35 48.9868V53.6842H15V48.9868C10.6 47.0542 6.975 44.1016 4.2 40.1289C1.425 36.1563 0 31.7005 0 26.8421H7.5V5.36842L50 0V2.68421ZM10 7.73053V10.7368H12.5V7.46211L10 7.73053ZM10 13.4211V26.8421H12.5V13.4211H10ZM17.5 26.8421V13.4211H15V26.8421H17.5ZM17.5 10.7368V6.84474L15 7.08632V10.7368H17.5Z" fill="black"/>
</svg>
