<svg width="51" height="50" viewBox="0 0 51 50" fill="none" xmlns="http://www.w3.org/2000/svg">
<path d="M38 27.5H28V37.5H23V27.5H13V22.5H23V12.5H28V22.5H38V27.5ZM25.5 0C22.217 0 18.9661 0.646644 15.9329 1.90301C12.8998 3.15938 10.1438 5.00087 7.82233 7.32233C3.13392 12.0107 0.5 18.3696 0.5 25C0.5 31.6304 3.13392 37.9893 7.82233 42.6777C10.1438 44.9991 12.8998 46.8406 15.9329 48.097C18.9661 49.3534 22.217 50 25.5 50C32.1304 50 38.4893 47.3661 43.1777 42.6777C47.8661 37.9893 50.5 31.6304 50.5 25C50.5 21.717 49.8534 18.4661 48.597 15.4329C47.3406 12.3998 45.4991 9.6438 43.1777 7.32233C40.8562 5.00087 38.1002 3.15938 35.0671 1.90301C32.0339 0.646644 28.783 0 25.5 0Z" fill="black"/>
</svg>
