<svg width="90" height="90" viewBox="0 0 90 90" fill="none" xmlns="http://www.w3.org/2000/svg">
<circle cx="45" cy="45" r="45" fill="#FF8533" fill-opacity="0.4"/>
<path d="M61.2778 45C60.1727 45 59.1129 44.561 58.3315 43.7796C57.5501 42.9982 57.1111 41.9384 57.1111 40.8333C57.1111 39.7283 57.5501 38.6685 58.3315 37.8871C59.1129 37.1057 60.1727 36.6667 61.2778 36.6667C62.3828 36.6667 63.4426 37.1057 64.2241 37.8871C65.0055 38.6685 65.4444 39.7283 65.4444 40.8333C65.4444 41.9384 65.0055 42.9982 64.2241 43.7796C63.4426 44.561 62.3828 45 61.2778 45ZM52.9444 33.8889C51.8394 33.8889 50.7796 33.4499 49.9982 32.6685C49.2168 31.8871 48.7778 30.8273 48.7778 29.7222C48.7778 28.6172 49.2168 27.5573 49.9982 26.7759C50.7796 25.9945 51.8394 25.5556 52.9444 25.5556C54.0495 25.5556 55.1093 25.9945 55.8907 26.7759C56.6721 27.5573 57.1111 28.6172 57.1111 29.7222C57.1111 30.8273 56.6721 31.8871 55.8907 32.6685C55.1093 33.4499 54.0495 33.8889 52.9444 33.8889ZM39.0556 33.8889C37.9505 33.8889 36.8907 33.4499 36.1093 32.6685C35.3279 31.8871 34.8889 30.8273 34.8889 29.7222C34.8889 28.6172 35.3279 27.5573 36.1093 26.7759C36.8907 25.9945 37.9505 25.5556 39.0556 25.5556C40.1606 25.5556 41.2204 25.9945 42.0018 26.7759C42.7832 27.5573 43.2222 28.6172 43.2222 29.7222C43.2222 30.8273 42.7832 31.8871 42.0018 32.6685C41.2204 33.4499 40.1606 33.8889 39.0556 33.8889ZM30.7222 45C29.6172 45 28.5573 44.561 27.7759 43.7796C26.9945 42.9982 26.5556 41.9384 26.5556 40.8333C26.5556 39.7283 26.9945 38.6685 27.7759 37.8871C28.5573 37.1057 29.6172 36.6667 30.7222 36.6667C31.8273 36.6667 32.8871 37.1057 33.6685 37.8871C34.4499 38.6685 34.8889 39.7283 34.8889 40.8333C34.8889 41.9384 34.4499 42.9982 33.6685 43.7796C32.8871 44.561 31.8273 45 30.7222 45ZM46 20C39.3696 20 33.0107 22.6339 28.3223 27.3223C23.6339 32.0107 21 38.3696 21 45C21 51.6304 23.6339 57.9893 28.3223 62.6777C33.0107 67.3661 39.3696 70 46 70C47.1051 70 48.1649 69.561 48.9463 68.7796C49.7277 67.9982 50.1667 66.9384 50.1667 65.8333C50.1667 64.75 49.75 63.7778 49.0833 63.0556C48.4444 62.3056 48.0278 61.3333 48.0278 60.2778C48.0278 59.1727 48.4668 58.1129 49.2482 57.3315C50.0296 56.5501 51.0894 56.1111 52.1944 56.1111H57.1111C60.7947 56.1111 64.3274 54.6478 66.932 52.0431C69.5367 49.4385 71 45.9058 71 42.2222C71 29.9444 59.8056 20 46 20Z" fill="black"/>
</svg>
