<svg width="50" height="50" viewBox="0 0 50 50" fill="none" xmlns="http://www.w3.org/2000/svg">
<path d="M15.2699 43.726C9.84468 41.7154 5.54447 37.0154 4.26941 30.9081L0.119211 11.2789C-0.480817 8.56453 1.24427 5.90039 3.9444 5.32233L28.3706 0.119731L28.4456 0.0945973C31.1207 -0.433202 33.7458 1.301 34.2959 3.96513L35.1709 8.16239L46.0464 10.4998H46.1214C48.7466 11.103 50.4466 13.7671 49.8966 16.4313L45.7464 36.0855C43.7463 45.5608 34.4459 51.643 24.9954 49.6072C21.0452 48.7778 17.6951 46.6415 15.2699 43.726ZM44.9964 15.4008L20.5702 10.1731L16.42 29.8273V29.9027C14.9949 36.6384 19.3201 43.2736 26.0455 44.7062C32.7708 46.1388 39.4211 41.8159 40.8462 35.055L44.9964 15.4008ZM34.9959 36.3117C33.4208 39.001 30.2707 40.4838 27.0705 39.8052C23.8954 39.1266 21.6202 36.4876 21.2452 33.3962L34.9959 36.3117ZM16.17 7.83566L4.99445 10.2485L9.14464 29.8776L9.16965 29.953C9.54466 31.7374 10.2947 33.346 11.3197 34.7283C11.0697 32.793 11.1197 30.7824 11.5448 28.7717L12.6198 23.7451C11.4948 23.544 10.5197 22.9157 9.99469 22.0109C10.1447 20.4777 11.3948 19.1205 13.1198 18.7184C13.3198 18.7184 13.4949 18.7184 13.7449 18.7184L15.695 9.14259C15.795 8.66506 15.945 8.23779 16.17 7.83566ZM32.5708 25.5798C33.3708 24.2477 35.0709 23.544 36.796 23.921C38.5211 24.2729 39.7711 25.6049 39.9961 27.1632C39.1711 28.4701 37.496 29.1739 35.7459 28.7717C34.0208 28.445 32.7708 27.1129 32.5708 25.5798ZM20.3702 22.9659C21.1702 21.6339 22.8453 20.9301 24.5704 21.3071C26.2455 21.659 27.5705 23.0162 27.7705 24.5493C26.9455 25.8563 25.2704 26.5851 23.5453 26.2584C21.8203 25.8311 20.5702 24.4991 20.3702 22.9659ZM24.9204 5.97579L29.8206 7.03139L29.4206 5.02073L24.9204 5.97579Z" fill="black"/>
</svg>
