<svg width="51" height="52" viewBox="0 0 51 52" fill="none" xmlns="http://www.w3.org/2000/svg">
<path d="M50.5 52H20.5V46.5263H50.5V52ZM0.5 52V46.5263H18V52H0.5ZM40.5 41.0526V19.1579H50.5V41.0526H40.5ZM40.5 0H50.5V16.4211H40.5V0ZM0.5 41.0526V0H35.5V41.0526H0.5ZM18 31.6379C19.9891 31.6379 21.8968 30.7729 23.3033 29.2331C24.7098 27.6933 25.5 25.6049 25.5 23.4274C25.5 17.9537 18 8.73053 18 8.73053C18 8.73053 10.5 17.9537 10.5 23.4274C10.5 25.6049 11.2902 27.6933 12.6967 29.2331C14.1032 30.7729 16.0109 31.6379 18 31.6379Z" fill="black"/>
</svg>
