<svg width="90" height="90" viewBox="0 0 90 90" fill="none" xmlns="http://www.w3.org/2000/svg">
<circle cx="45" cy="45" r="45" fill="#FF8533" fill-opacity="0.4"/>
<path d="M26 28.6667H33.5L38.5 24H53.5L58.5 28.6667H66C67.3261 28.6667 68.5979 29.1583 69.5355 30.0335C70.4732 30.9087 71 32.0957 71 33.3333V61.3333C71 62.571 70.4732 63.758 69.5355 64.6332C68.5979 65.5083 67.3261 66 66 66H26C24.6739 66 23.4021 65.5083 22.4645 64.6332C21.5268 63.758 21 62.571 21 61.3333V33.3333C21 32.0957 21.5268 30.9087 22.4645 30.0335C23.4021 29.1583 24.6739 28.6667 26 28.6667ZM46 35.6667C42.6848 35.6667 39.5054 36.8958 37.1612 39.0838C34.817 41.2717 33.5 44.2391 33.5 47.3333C33.5 50.4275 34.817 53.395 37.1612 55.5829C39.5054 57.7708 42.6848 59 46 59C49.3152 59 52.4946 57.7708 54.8388 55.5829C57.183 53.395 58.5 50.4275 58.5 47.3333C58.5 44.2391 57.183 41.2717 54.8388 39.0838C52.4946 36.8958 49.3152 35.6667 46 35.6667ZM46 40.3333C47.9891 40.3333 49.8968 41.0708 51.3033 42.3836C52.7098 43.6963 53.5 45.4768 53.5 47.3333C53.5 49.1898 52.7098 50.9703 51.3033 52.2831C49.8968 53.5958 47.9891 54.3333 46 54.3333C44.0109 54.3333 42.1032 53.5958 40.6967 52.2831C39.2902 50.9703 38.5 49.1898 38.5 47.3333C38.5 45.4768 39.2902 43.6963 40.6967 42.3836C42.1032 41.0708 44.0109 40.3333 46 40.3333Z" fill="black"/>
</svg>
